<svg width="48" height="48" viewBox="0 0 48 48" fill="none" xmlns="http://www.w3.org/2000/svg">
<path fill-rule="evenodd" clip-rule="evenodd" d="M10.5 4C11.6046 4 12.5 4.89543 12.5 6V8.5H15C16.1046 8.5 17 9.39543 17 10.5C17 11.6046 16.1046 12.5 15 12.5H12.5V15C12.5 16.1046 11.6046 17 10.5 17C9.39543 17 8.5 16.1046 8.5 15V12.5H6C4.89543 12.5 4 11.6046 4 10.5C4 9.39543 4.89543 8.5 6 8.5H8.5V6C8.5 4.89543 9.39543 4 10.5 4ZM25.8 5.8C26.6275 5.8 27.3696 6.30966 27.6667 7.08204L30.7882 15.198C31.3326 16.6134 31.4932 16.9903 31.7076 17.2918C31.9279 17.6015 32.1985 17.8721 32.5082 18.0924C32.8097 18.3068 33.1866 18.4674 34.602 19.0118L42.718 22.1333C43.4903 22.4304 44 23.1725 44 24C44 24.8275 43.4903 25.5696 42.718 25.8667L34.602 28.9882C33.1866 29.5326 32.8097 29.6932 32.5082 29.9076C32.1985 30.1278 31.9279 30.3985 31.7076 30.7082C31.4932 31.0097 31.3326 31.3866 30.7882 32.802L27.6667 40.918C27.3696 41.6903 26.6275 42.2 25.8 42.2C24.9725 42.2 24.2304 41.6903 23.9333 40.918L20.8118 32.802C20.2674 31.3866 20.1068 31.0097 19.8924 30.7082C19.6721 30.3985 19.4015 30.1278 19.0918 29.9076C18.7903 29.6932 18.4134 29.5326 16.998 28.9882L8.88204 25.8667C8.10966 25.5696 7.6 24.8275 7.6 24C7.6 23.1725 8.10966 22.4304 8.88204 22.1333L16.998 19.0118C18.4134 18.4674 18.7903 18.3068 19.0918 18.0924C19.4015 17.8721 19.6722 17.6015 19.8924 17.2918C20.1068 16.9903 20.2674 16.6134 20.8118 15.198L23.9333 7.08204C24.2304 6.30966 24.9725 5.8 25.8 5.8ZM25.8 13.3714L24.5452 16.6339C24.5199 16.6996 24.495 16.7646 24.4703 16.8287C24.0364 17.959 23.6964 18.8445 23.1523 19.6097C22.6729 20.2839 22.0839 20.8729 21.4097 21.3523C20.6445 21.8964 19.759 22.2364 18.6287 22.6703C18.5646 22.695 18.4996 22.7199 18.4339 22.7452L15.1714 24L18.4339 25.2548C18.4996 25.2801 18.5646 25.305 18.6287 25.3297C19.759 25.7636 20.6445 26.1036 21.4097 26.6477C22.0839 27.1271 22.6729 27.7161 23.1523 28.3903C23.6964 29.1555 24.0364 30.041 24.4703 31.1713C24.495 31.2354 24.5199 31.3004 24.5452 31.3661L25.8 34.6286L27.0548 31.3661C27.0801 31.3004 27.105 31.2355 27.1296 31.1714C27.5636 30.041 27.9036 29.1555 28.4477 28.3903C28.9271 27.7161 29.5161 27.1271 30.1903 26.6477C30.9555 26.1036 31.841 25.7636 32.9713 25.3297C33.0354 25.305 33.1004 25.2801 33.1661 25.2548L36.4286 24L33.1661 22.7452C33.1004 22.7199 33.0354 22.695 32.9713 22.6703C31.841 22.2364 30.9555 21.8964 30.1903 21.3523C29.5161 20.8729 28.9271 20.2839 28.4477 19.6097C27.9036 18.8445 27.5636 17.959 27.1296 16.8287C27.105 16.7645 27.0801 16.6996 27.0548 16.6339L25.8 13.3714ZM10.5 31C11.6046 31 12.5 31.8954 12.5 33V35.5H15C16.1046 35.5 17 36.3954 17 37.5C17 38.6046 16.1046 39.5 15 39.5H12.5V42C12.5 43.1046 11.6046 44 10.5 44C9.39543 44 8.5 43.1046 8.5 42V39.5H6C4.89543 39.5 4 38.6046 4 37.5C4 36.3954 4.89543 35.5 6 35.5H8.5V33C8.5 31.8954 9.39543 31 10.5 31Z" fill="white"/>
</svg>
