<svg width="48" height="48" viewBox="0 0 48 48" fill="none" xmlns="http://www.w3.org/2000/svg">
<path fill-rule="evenodd" clip-rule="evenodd" d="M23.7379 5.99986C23.824 5.99992 23.9114 5.99998 24 5.99998C24.0886 5.99998 24.176 5.99992 24.2621 5.99986C25.6783 5.99895 26.7678 5.99824 27.7153 6.25212C30.2689 6.93638 32.2636 8.93103 32.9479 11.4847C33.0869 12.0037 33.1496 12.5654 33.1777 13.2L33.4413 13.2C34.8843 13.1999 36.0872 13.1999 37.0696 13.2802C38.0937 13.3639 39.053 13.5446 39.9595 14.0065C41.3519 14.716 42.484 15.848 43.1935 17.2404C43.6553 18.1469 43.8361 19.1063 43.9198 20.1304C44.0001 21.1128 44 22.3158 44 23.7588V31.8411C44 33.2842 44.0001 34.4871 43.9198 35.4695C43.8361 36.4937 43.6553 37.453 43.1935 38.3595C42.484 39.7519 41.3519 40.884 39.9595 41.5934C39.053 42.0553 38.0937 42.2361 37.0696 42.3198C36.0872 42.4 34.8843 42.4 33.4414 42.4H14.5586C13.1157 42.4 11.9128 42.4 10.9304 42.3198C9.90629 42.2361 8.94697 42.0553 8.04047 41.5934C6.64807 40.884 5.51602 39.7519 4.80655 38.3595C4.34467 37.453 4.16389 36.4937 4.08021 35.4695C3.99995 34.4872 3.99997 33.2842 4 31.8413V23.7587C3.99997 22.3157 3.99995 21.1128 4.08021 20.1304C4.16389 19.1063 4.34467 18.1469 4.80655 17.2404C5.51602 15.848 6.64807 14.716 8.04047 14.0065C8.94697 13.5446 9.90629 13.3639 10.9304 13.2802C11.9128 13.1999 13.1157 13.1999 14.5587 13.2L14.8223 13.2C14.8504 12.5654 14.9131 12.0037 15.0522 11.4847C15.7364 8.93103 17.7311 6.93638 20.2847 6.25212C21.2322 5.99824 22.3217 5.99895 23.7379 5.99986ZM14.8 17.2H14.64C13.0949 17.2 12.0563 17.2015 11.2562 17.2669C10.4794 17.3304 10.1051 17.4439 9.85643 17.5706C9.21668 17.8965 8.69655 18.4167 8.37058 19.0564C8.2439 19.305 8.1304 19.6794 8.06693 20.4561C8.00156 21.2563 8 22.2948 8 23.84V31.76C8 33.3051 8.00156 34.3437 8.06693 35.1438C8.1304 35.9206 8.2439 36.2949 8.37058 36.5435C8.69655 37.1833 9.21668 37.7034 9.85643 38.0294C10.1051 38.1561 10.4794 38.2696 11.2562 38.333C12.0563 38.3984 13.0949 38.4 14.64 38.4H14.8V17.2ZM18.8 38.4V17.2H29.2V24.9H25.44C25.4258 24.9 25.4113 24.9 25.3966 24.9C25.1842 24.8999 24.9202 24.8997 24.686 24.9189C24.4123 24.9412 24.0086 24.9994 23.5834 25.2161C23.0378 25.4941 22.5941 25.9377 22.3161 26.4834C22.0994 26.9086 22.0413 27.3122 22.0189 27.586C21.9998 27.8202 21.9999 28.0842 22 28.2966C22 28.3113 22 28.3258 22 28.34V32.66C22 32.6742 22 32.6887 22 32.7034C21.9999 32.9158 21.9998 33.1798 22.0189 33.414C22.0413 33.6877 22.0994 34.0914 22.3161 34.5165C22.5941 35.0622 23.0378 35.5059 23.5834 35.7839C24.0086 36.0005 24.4123 36.0587 24.686 36.0811C24.9202 36.1002 25.1842 36.1001 25.3966 36.1C25.4113 36.1 25.4258 36.1 25.44 36.1H29.2V38.4H18.8ZM33.2 38.4H33.36C34.9051 38.4 35.9437 38.3984 36.7438 38.333C37.5206 38.2696 37.8949 38.1561 38.1436 38.0294C38.7833 37.7034 39.3035 37.1833 39.6294 36.5435C39.7561 36.2949 39.8696 35.9206 39.9331 35.1438C39.9984 34.3437 40 33.3051 40 31.76V23.84C40 22.2948 39.9984 21.2563 39.9331 20.4561C39.8696 19.6794 39.7561 19.305 39.6294 19.0564C39.3035 18.4167 38.7833 17.8965 38.1436 17.5706C37.8949 17.4439 37.5206 17.3304 36.7438 17.2669C35.9437 17.2015 34.9051 17.2 33.36 17.2H33.2V24.9H34.26C34.2742 24.9 34.2887 24.9 34.3034 24.9C34.5158 24.8999 34.7798 24.8997 35.014 24.9189C35.2877 24.9412 35.6914 24.9994 36.1166 25.2161C36.6622 25.4941 37.1059 25.9377 37.3839 26.4834C37.6006 26.9086 37.6587 27.3122 37.6811 27.586C37.7002 27.8202 37.7001 28.0842 37.7 28.2965C37.7 28.3113 37.7 28.3258 37.7 28.34V32.66C37.7 32.6742 37.7 32.6887 37.7 32.7034C37.7001 32.9158 37.7002 33.1798 37.6811 33.414C37.6587 33.6877 37.6006 34.0914 37.3839 34.5165C37.1059 35.0622 36.6622 35.5059 36.1166 35.7839C35.6914 36.0005 35.2877 36.0587 35.014 36.0811C34.7798 36.1002 34.5158 36.1001 34.3034 36.1C34.2887 36.1 34.2742 36.1 34.26 36.1H33.2V38.4ZM33.7 32.1V28.9H26V32.1H33.7ZM29.1733 13.2H18.8267C18.844 12.8769 18.8718 12.6844 18.9159 12.52C19.2302 11.3467 20.1467 10.4302 21.32 10.1158C21.6883 10.0172 22.1973 9.99998 24 9.99998C25.8027 9.99998 26.3117 10.0172 26.68 10.1158C27.8533 10.4302 28.7698 11.3467 29.0841 12.52C29.1282 12.6844 29.156 12.8769 29.1733 13.2Z" fill="white"/>
</svg>
