<svg width="48" height="48" viewBox="0 0 48 48" fill="none" xmlns="http://www.w3.org/2000/svg">
<path fill-rule="evenodd" clip-rule="evenodd" d="M18.6 10C17.5932 10 16.6907 10.435 16.0653 11.1338C15.3286 11.9569 14.0642 12.0269 13.2412 11.2903C12.4181 10.5536 12.3481 9.28922 13.0847 8.46617C14.4369 6.95545 16.4082 6 18.6 6C22.6869 6 26 9.31309 26 13.4C26 17.4869 22.6869 20.8 18.6 20.8H6C4.89543 20.8 4 19.9046 4 18.8C4 17.6954 4.89543 16.8 6 16.8H18.6C20.4778 16.8 22 15.2778 22 13.4C22 11.5222 20.4778 10 18.6 10ZM36.6 14.5C35.5932 14.5 34.6907 14.935 34.0653 15.6338C33.3286 16.4569 32.0642 16.5269 31.2412 15.7903C30.4181 15.0536 30.3481 13.7892 31.0847 12.9662C32.4369 11.4554 34.4082 10.5 36.6 10.5C40.6869 10.5 44 13.8131 44 17.9C44 21.9869 40.6869 25.3 36.6 25.3H25.8C24.6954 25.3 23.8 24.4046 23.8 23.3C23.8 22.1954 24.6954 21.3 25.8 21.3H36.6C38.4778 21.3 40 19.7778 40 17.9C40 16.0222 38.4778 14.5 36.6 14.5ZM4 29.6C4 28.4954 4.89543 27.6 6 27.6H25.8C29.8869 27.6 33.2 30.9131 33.2 35C33.2 39.0869 29.8869 42.4 25.8 42.4C23.6082 42.4 21.6369 41.4445 20.2847 39.9338C19.5481 39.1107 19.6181 37.8463 20.4412 37.1097C21.2642 36.373 22.5286 36.4431 23.2653 37.2661C23.8907 37.9649 24.7932 38.4 25.8 38.4C27.6777 38.4 29.2 36.8777 29.2 35C29.2 33.1222 27.6777 31.6 25.8 31.6H6C4.89543 31.6 4 30.7045 4 29.6Z" fill="white"/>
</svg>
